<?xml version="1.0" standalone="no"?>
<!DOCTYPE svg PUBLIC "-//W3C//DTD SVG 1.1//EN" "http://www.w3.org/Graphics/SVG/1.1/DTD/svg11.dtd" >
<svg xmlns="http://www.w3.org/2000/svg" xmlns:xlink="http://www.w3.org/1999/xlink" version="1.1">
<metadata>
Created by FontForge 20170910 at Tue Feb  4 02:57:07 2014
 By Jimmy Wärting
Typeface (c) Essque' Productions. 2008. All Rights Reserved
</metadata>
<defs>
<font id="Tall&#38;Lean" horiz-adv-x="600" >
  <font-face 
    font-family="Tall &#38; Lean"
    font-weight="400"
    font-stretch="normal"
    units-per-em="2048"
    panose-1="2 0 4 4 0 2 0 0 0 0"
    ascent="1638"
    descent="-410"
    x-height="1000"
    cap-height="1400"
    bbox="-200 -350 1250 1750"
    underline-thickness="150"
    underline-position="-292"
    unicode-range="U+001D-F002"
  />
<missing-glyph horiz-adv-x="1183" 
d="M1033 0h-965v1434h965v-1250q-31 0 -59 21v1179h-847v-1334h847v105q28 -10 59 -13v-142zM335 1054h240v-20h-4q-76 0 -76 -64v-172l12 -4q200 180 200 220q0 17 -48 20v20h204v-20q-74 0 -248 -196l-32 -32l40 4h84q178 0 212 -128l4 -36q0 -101 -124 -180
q29 -139 104 -224q72 -72 160 -72q41 0 60 28q3 7 3 14q0 16 -18 29l-33 -7q23 23 45 23h8q25 -5 27 -35q0 -48 -80 -64h-40q-181 0 -300 244q0 21 -12 24q-105 -32 -200 -32q-296 0 -364 204l-8 44q0 122 164 164l76 8h24v124q0 92 -36 92l-40 4h-4v20zM235 630
q0 -153 168 -204q47 -16 128 -20q98 0 192 40q-25 92 -80 188q-70 95 -136 136h-4l-8 -8v-140q0 -100 24 -100q12 -12 52 -12h4v-20h-240v20h12q68 0 68 64v224h-20q-125 0 -156 -132zM543 782v-4q159 -68 220 -200l32 -68q32 61 32 104v12q0 111 -120 156q-16 8 -72 12z
" />
    <glyph glyph-name=".notdef" horiz-adv-x="1183" 
d="M1033 0h-965v1434h965v-1250q-31 0 -59 21v1179h-847v-1334h847v105q28 -10 59 -13v-142zM335 1054h240v-20h-4q-76 0 -76 -64v-172l12 -4q200 180 200 220q0 17 -48 20v20h204v-20q-74 0 -248 -196l-32 -32l40 4h84q178 0 212 -128l4 -36q0 -101 -124 -180
q29 -139 104 -224q72 -72 160 -72q41 0 60 28q3 7 3 14q0 16 -18 29l-33 -7q23 23 45 23h8q25 -5 27 -35q0 -48 -80 -64h-40q-181 0 -300 244q0 21 -12 24q-105 -32 -200 -32q-296 0 -364 204l-8 44q0 122 164 164l76 8h24v124q0 92 -36 92l-40 4h-4v20zM235 630
q0 -153 168 -204q47 -16 128 -20q98 0 192 40q-25 92 -80 188q-70 95 -136 136h-4l-8 -8v-140q0 -100 24 -100q12 -12 52 -12h4v-20h-240v20h12q68 0 68 64v224h-20q-125 0 -156 -132zM543 782v-4q159 -68 220 -200l32 -68q32 61 32 104v12q0 111 -120 156q-16 8 -72 12z
" />
    <glyph glyph-name=".null" horiz-adv-x="0" 
 />
    <glyph glyph-name=".null" horiz-adv-x="0" 
 />
    <glyph glyph-name="nonmarkingreturn" horiz-adv-x="508" 
 />
    <glyph glyph-name="space" unicode=" " horiz-adv-x="347" 
 />
    <glyph glyph-name="space" unicode="&#xa0;" horiz-adv-x="347" 
 />
    <glyph glyph-name="exclam" unicode="!" horiz-adv-x="200" 
d="M0 200v1200h100v-1200h-100zM50 0q-20 0 -35 14.5t-15 35.5t15 35.5t35 14.5q21 0 35.5 -14.5t14.5 -35.5t-14.5 -35.5t-35.5 -14.5z" />
    <glyph glyph-name="quotedbl" unicode="&#x22;" horiz-adv-x="350" 
d="M0 1350q0 21 14.5 35.5t35.5 14.5t35.5 -14.5t14.5 -35.5t-50 -150q-50 129 -50 150zM150 1350q0 21 14.5 35.5t35.5 14.5t35.5 -14.5t14.5 -35.5t-50 -150q-50 129 -50 150z" />
    <glyph glyph-name="numbersign" unicode="#" 
d="M100 700l14 100h-114v100h129l71 500h100l-71 -500h100l71 500h100l-71 -500h71v-100h-86l-14 -100h100v-100h-114l-86 -600h-100l86 600h-100l-86 -600h-100l86 600h-86v100h100zM214 800l-14 -100h100l14 100h-100z" />
    <glyph glyph-name="dollar" unicode="$" 
d="M200 1003v289q-31 -11 -56 -36q-44 -44 -44 -106t44 -106q23 -23 56 -41zM300 108q31 11 56 36q44 44 44 106v450q0 62 -44 106q-23 23 -56 40v-738zM300 964q66 -27 127 -87q73 -73 73 -177v-450q0 -103 -73 -176q-55 -56 -127 -69v-105h-100v105q-72 13 -127 69
q-73 73 -73 176v100h100v-100q0 -62 44 -106q25 -25 56 -36v777q-67 28 -127 88q-73 73 -73 177t73 177q55 55 127 68v105h100v-105q72 -13 127 -68q73 -73 73 -177h-100q0 62 -44 106q-25 25 -56 36v-328z" />
    <glyph glyph-name="percent" unicode="%" horiz-adv-x="800" 
d="M600 1400l-400 -1400h-100l400 1400h100zM200 1000q-83 0 -141.5 58.5t-58.5 141.5t58.5 141.5t141.5 58.5t141.5 -58.5t58.5 -141.5t-58.5 -141.5t-141.5 -58.5zM270.5 1129.5q29.5 29.5 29.5 70.5q0 42 -29.5 71t-70.5 29t-70.5 -29t-29.5 -71q0 -41 29.5 -70.5
t70.5 -29.5t70.5 29.5zM500 0q-83 0 -141.5 58.5t-58.5 141.5t58.5 141.5t141.5 58.5t141.5 -58.5t58.5 -141.5t-58.5 -141.5t-141.5 -58.5zM570.5 129.5q29.5 29.5 29.5 70.5q0 42 -29.5 71t-70.5 29t-70.5 -29t-29.5 -71q0 -41 29.5 -70.5t70.5 -29.5t70.5 29.5z" />
    <glyph glyph-name="ampersand" unicode="&#x26;" horiz-adv-x="650" 
d="M100 1200q0 -55 41 -179l45 -113q58 71 85 147q29 79 29 145q0 42 -29 71t-71 29q-41 0 -70.5 -29t-29.5 -71zM400 374v126h150v-100h-50v-150q0 -47 -15 -88l65 -162h-100l-28 69q-72 -69 -172 -69q-104 0 -177 73.5t-73 176.5v250q0 108 59 217q28 53 58 99l-70 172
q-47 114 -47 212q0 83 58.5 141.5t141.5 58.5t141.5 -58.5t58.5 -141.5q0 -107 -58 -216q-56 -104 -115 -177zM379 173l-219 538q-18 -32 -30 -65q-30 -79 -30 -146v-250q0 -62 44 -106t106 -44t106 44q14 14 23 29z" />
    <glyph glyph-name="quotesingle" unicode="'" horiz-adv-x="200" 
d="M0 1350q0 21 14.5 35.5t35.5 14.5t35.5 -14.5t14.5 -35.5t-50 -150q-50 129 -50 150z" />
    <glyph glyph-name="parenleft" unicode="(" horiz-adv-x="400" 
d="M300 1500q-200 -400 -200 -800t200 -800h-105q-195 400 -195 800t195 800h105z" />
    <glyph glyph-name="parenright" unicode=")" horiz-adv-x="400" 
d="M0 1500q200 -400 200 -800t-200 -800h105q195 400 195 800t-195 800h-105z" />
    <glyph glyph-name="asterisk" unicode="*" horiz-adv-x="496" 
d="M148 1287v113h100v-113l98 57l50 -87l-98 -56l98 -57l-50 -87l-98 57v-114h-100v114l-98 -57l-50 87l98 57l-98 56l50 87z" />
    <glyph glyph-name="plus" unicode="+" 
d="M200 900v200h100v-200h200v-100h-200v-200h-100v200h-200v100h200z" />
    <glyph glyph-name="comma" unicode="," horiz-adv-x="200" 
d="M50 0q-21 0 -35.5 14.5t-14.5 35.5t14.5 35.5t35.5 14.5t35.5 -14.5t14.5 -35.5t-20 -60.5t-80 -89.5q50 75 50 100z" />
    <glyph glyph-name="hyphen" unicode="-" horiz-adv-x="400" 
d="M300 1000v-100h-300v100h300z" />
    <glyph glyph-name="hyphen" unicode="&#xad;" horiz-adv-x="400" 
d="M300 1000v-100h-300v100h300z" />
    <glyph glyph-name="period" unicode="." horiz-adv-x="200" 
d="M50 0q-21 0 -35.5 15t-14.5 35q0 21 14.5 35.5t35.5 14.5t35.5 -14.5t14.5 -35.5q0 -20 -14.5 -35t-35.5 -15z" />
    <glyph glyph-name="slash" unicode="/" horiz-adv-x="603" 
d="M450 1600l-400 -1800h100l400 1800h-100z" />
    <glyph glyph-name="zero" unicode="0" horiz-adv-x="603" 
d="M100 250q0 -62 44 -106t106 -44t106 44t44 106v900q0 62 -44 106t-106 44t-106 -44t-44 -106v-900zM250 0q-104 0 -177 73.5t-73 176.5v900q0 104 73 177t177 73t177 -73t73 -177v-900q0 -103 -73 -176.5t-177 -73.5zM250 700q-20 0 -35 14.5t-15 35.5t15 35.5t35 14.5
q21 0 35.5 -14.5t14.5 -35.5t-14.5 -35.5t-35.5 -14.5z" />
    <glyph glyph-name="one" unicode="1" horiz-adv-x="400" 
d="M300 1400v-1400h-100v1150l-100 -250h-100l200 500h100z" />
    <glyph glyph-name="two" unicode="2" 
d="M0 100q0 404 73.5 577t156 248t126.5 119t44 106t-44 106t-106 44t-106 -44t-44 -106h-100q0 104 73 177t177 73t177 -73t73 -177t-73 -177t-156 -148t-127 -219t-44 -506h400v-100h-500v100z" />
    <glyph glyph-name="three" unicode="3" 
d="M250 1000q63 0 106.5 43.5t43.5 106.5q0 62 -43.5 106t-106.5 44q-62 0 -106 -44t-44 -106h-100q0 103 73.5 176.5t176.5 73.5q104 0 177 -73.5t73 -176.5q0 -104 -73 -177q-13 -13 -26 -23q13 -10 26 -23q73 -73 73 -177v-500q0 -103 -73 -176.5t-177 -73.5t-177 73.5
t-73 176.5h100q0 -62 44 -106t106 -44t106 44t44 106v500q0 62 -44 106t-106 44h-50v100h50z" />
    <glyph glyph-name="four" unicode="4" 
d="M400 1150l-300 -750h300v750zM400 1400h100v-1000h50v-100h-50v-300h-100v300h-400v100z" />
    <glyph glyph-name="five" unicode="5" 
d="M0 1400h500v-100h-400v-349q65 49 150 49q104 0 177 -73t73 -177v-500q0 -103 -73 -176.5t-177 -73.5t-177 73.5t-73 176.5h100q0 -62 44 -106t106 -44t106 44t44 106v500q0 62 -44 106t-106 44t-106 -44t-44 -106h-100v650z" />
    <glyph glyph-name="six" unicode="6" horiz-adv-x="601" 
d="M100 250q0 -62 44 -106t106 -44t106 44t44 106v500q0 62 -44 106t-106 44t-106 -44t-44 -106v-500zM100 951q65 49 150 49q104 0 177 -73t73 -177v-500q0 -103 -73 -176.5t-177 -73.5t-177 73.5t-73 176.5v900q0 104 73 177t177 73t177 -73t73 -177h-100q0 62 -44 106
t-106 44t-106 -44t-44 -106v-199z" />
    <glyph glyph-name="seven" unicode="7" 
d="M150 0h-100q0 600 300 1300h-350v100h500q-350 -800 -350 -1400z" />
    <glyph glyph-name="eight" unicode="8" 
d="M100 250q0 -62 44 -106t106 -44t106 44t44 106v500q0 62 -44 106t-106 44t-106 -44t-44 -106v-500zM400 1150q0 62 -43.5 106t-106.5 44q-62 0 -106 -44t-44 -106q0 -63 44 -106.5t106 -43.5q63 0 106.5 43.5t43.5 106.5zM401 950q13 -10 26 -23q73 -73 73 -177v-500
q0 -103 -73 -176.5t-177 -73.5t-177 73.5t-73 176.5v500q0 104 73 177q13 13 26 23q-13 11 -25 23q-74 73 -74 177q0 103 73.5 176.5t176.5 73.5q104 0 177 -73.5t73 -176.5q0 -104 -73 -177q-13 -13 -26 -23z" />
    <glyph glyph-name="nine" unicode="9" 
d="M400 1150q0 62 -44 106t-106 44t-106 -44t-44 -106v-600q0 -62 44 -106t106 -44t106 44t44 106v600zM400 349q-65 -49 -150 -49q-104 0 -177 73t-73 177v600q0 103 73 176.5t177 73.5t177 -73.5t73 -176.5v-900q0 -104 -73 -177t-177 -73t-177 73t-73 177h100
q0 -62 44 -106t106 -44t106 44t44 106v99z" />
    <glyph glyph-name="colon" unicode=":" horiz-adv-x="200" 
d="M50 0q-21 0 -35.5 15t-14.5 35q0 21 14.5 35.5t35.5 14.5t35.5 -14.5t14.5 -35.5q0 -20 -14.5 -35t-35.5 -15zM50 900q-21 0 -35.5 15t-14.5 35q0 21 14.5 35.5t35.5 14.5t35.5 -14.5t14.5 -35.5q0 -20 -14.5 -35t-35.5 -15z" />
    <glyph glyph-name="semicolon" unicode=";" horiz-adv-x="200" 
d="M50 0q-21 0 -35.5 14.5t-14.5 35.5t14.5 35.5t35.5 14.5t35.5 -14.5t14.5 -35.5t-20 -60.5t-80 -89.5q50 75 50 100zM50 900q-21 0 -35.5 15t-14.5 35q0 21 14.5 35.5t35.5 14.5t35.5 -14.5t14.5 -35.5q0 -20 -14.5 -35t-35.5 -15z" />
    <glyph glyph-name="semicolon" unicode="&#x37e;" horiz-adv-x="200" 
d="M50 0q-21 0 -35.5 14.5t-14.5 35.5t14.5 35.5t35.5 14.5t35.5 -14.5t14.5 -35.5t-20 -60.5t-80 -89.5q50 75 50 100zM50 900q-21 0 -35.5 15t-14.5 35q0 21 14.5 35.5t35.5 14.5t35.5 -14.5t14.5 -35.5q0 -20 -14.5 -35t-35.5 -15z" />
    <glyph glyph-name="less" unicode="&#x3c;" 
d="M0 900l500 200v-100l-375 -150l375 -150v-100l-500 200v100z" />
    <glyph glyph-name="equal" unicode="=" 
d="M0 900v100h500v-100h-500zM0 700v100h500v-100h-500z" />
    <glyph glyph-name="greater" unicode="&#x3e;" 
d="M500 900l-500 200v-100l375 -150l-375 -150v-100l500 200v100z" />
    <glyph glyph-name="question" unicode="?" 
d="M400 1000v150q0 62 -44 106t-106 44t-106 -44t-44 -106v-100h-100v100q0 103 73 176.5t177 73.5t177 -73.5t73 -176.5v-150q0 -212 -44 -306t-85.5 -144t-56 -114.5t-14.5 -235.5h-100q0 212 44 306t85.5 144t56 114.5t14.5 235.5zM250 0q-21 0 -35.5 14.5t-14.5 35.5
t14.5 35.5t35.5 14.5t35.5 -14.5t14.5 -35.5t-14.5 -35.5t-35.5 -14.5z" />
    <glyph glyph-name="at" unicode="@" 
d="M275 550v350h-12q-13 0 -25.5 -7.5t-12.5 -17.5v-300q0 -15 9.5 -20t28.5 -5h12zM263 450q-58 0 -98 36.5t-40 88.5v300q0 52 40 88.5t98 36.5h12v36q0 6 -4 10t-10 4q-7 0 -11 -4t-4 -10h-100q0 47 33.5 80.5t81.5 33.5q47 0 80.5 -33.5t33.5 -80.5v-474q0 -5 4 -8.5
t9 -3.5t8.5 3.5t3.5 8.5v488q0 62 -44 106t-106 44t-106 -44t-44 -106v-700q0 -62 44 -106t106 -44t106 44t44 106h100q0 -103 -73 -176.5t-177 -73.5t-177 73.5t-73 176.5v700q0 104 73 177t177 73t177 -73t73 -177v-488q0 -46 -32.5 -79t-79.5 -33h-125z" />
    <glyph glyph-name="A" unicode="A" 
d="M343 400l-93 650l-93 -650h186zM143 300l-43 -300h-100l200 1400h100l200 -1400h-100l-43 300h-214z" />
    <glyph glyph-name="B" unicode="B" 
d="M100 900v-800h150q62 0 106 44t44 106v500q0 62 -44 106t-106 44h-150zM260 1400q98 -4 167 -73q73 -74 73 -177q0 -104 -73 -177q-13 -13 -26 -23q13 -10 26 -23q73 -73 73 -177v-500q0 -103 -73 -176.5t-177 -73.5h-250v1400h260zM100 1300v-300h150q63 0 106.5 43.5
t43.5 106.5q0 62 -43.5 106t-106.5 44h-150z" />
    <glyph glyph-name="C" unicode="C" 
d="M100 250q0 -62 44 -106t106 -44t106 44t44 106h100q0 -103 -73 -176.5t-177 -73.5t-177 73.5t-73 176.5v900q0 104 73 177t177 73t177 -73t73 -177h-100q0 62 -44 106t-106 44t-106 -44t-44 -106v-900z" />
    <glyph glyph-name="D" unicode="D" 
d="M100 1300v-1200h150q62 0 106 44t44 106v900q0 62 -44 106t-106 44h-150zM0 0v1400h250q104 0 177 -73t73 -177v-900q0 -103 -73 -176.5t-177 -73.5h-250z" />
    <glyph glyph-name="E" unicode="E" 
d="M500 1400v-100h-400v-300h250v-100h-250v-800h400v-100h-500v1400h500z" />
    <glyph glyph-name="F" unicode="F" horiz-adv-x="550" 
d="M500 1400v-100h-400v-300h250v-100h-250v-900h-100v1400h500z" />
    <glyph glyph-name="G" unicode="G" 
d="M500 250q0 -103 -73 -176.5t-177 -73.5t-177 73.5t-73 176.5v900q0 104 73 177t177 73t177 -73t73 -177h-100q0 62 -44 106t-106 44t-106 -44t-44 -106v-900q0 -62 44 -106t106 -44t106 44t44 106l2 50h-152v100h250v-150z" />
    <glyph glyph-name="H" unicode="H" 
d="M400 900h-300v-895h-100v1395h100v-400h300v400h100v-1400h-100v900z" />
    <glyph glyph-name="I" unicode="I" horiz-adv-x="200" 
d="M0 0v1400h100v-1400h-100z" />
    <glyph glyph-name="J" unicode="J" 
d="M250 0q-104 0 -177 73t-73 177v100h100v-100q0 -62 44 -106t106 -44t106 44t44 106v1150h100v-1150q0 -104 -73 -177t-177 -73z" />
    <glyph glyph-name="K" unicode="K" 
d="M100 900v-900h-100v1400h100v-348l275 348h125l-237 -296l237 -1104h-100l-215 1006z" />
    <glyph glyph-name="L" unicode="L" 
d="M100 1400v-1300h400v-100h-500v1400h100z" />
    <glyph glyph-name="M" unicode="M" 
d="M500 1400v-1400h-100v1150l-100 -250h-100l-100 250v-1150h-100v1400h100l150 -375l150 375h100z" />
    <glyph glyph-name="N" unicode="N" 
d="M400 350v1050h100v-1400h-100l-300 1050v-1050h-100v1400h100z" />
    <glyph glyph-name="O" unicode="O" 
d="M250 0q-104 0 -177 73.5t-73 176.5v900q0 104 73 177t177 73t177 -73t73 -177v-900q0 -103 -73 -176.5t-177 -73.5zM100 250q0 -62 44 -106t106 -44t106 44t44 106v900q0 62 -44 106t-106 44t-106 -44t-44 -106v-900z" />
    <glyph glyph-name="P" unicode="P" 
d="M100 300v-300h-100v1400h250q104 0 177 -73t73 -177v-600q0 -103 -73 -176.5t-177 -73.5h-150zM100 1300v-900h150q62 0 106 44t44 106v600q0 62 -44 106t-106 44h-150z" />
    <glyph glyph-name="Q" unicode="Q" 
d="M382 37q-58 -37 -132 -37q-104 0 -177 73.5t-73 176.5v900q0 104 73 177t177 73t177 -73t73 -177v-900q0 -85 -50 -150l50 -100h-100zM336 127l-136 273h100l95 -190q5 19 5 40v900q0 62 -44 106t-106 44t-106 -44t-44 -106v-900q0 -62 44 -106t106 -44q49 0 86 27z" />
    <glyph glyph-name="R" unicode="R" 
d="M100 1300v-900h150q62 0 106 44t44 106v600q0 62 -44 106t-106 44h-150zM323 310q-35 -10 -73 -10h-150v-300h-100v1400h250q104 0 177 -73t73 -177v-600q0 -103 -73 -176q-8 -9 -17 -16l90 -358h-100z" />
    <glyph glyph-name="S" unicode="S" 
d="M500 700v-450q0 -103 -73 -176.5t-177 -73.5t-177 73.5t-73 176.5v100h100v-100q0 -62 44 -106t106 -44t106 44t44 106v450q0 62 -44 106t-127 69t-156 98t-73 177t73 177t177 73t177 -73t73 -177h-100q0 62 -44 106t-106 44t-106 -44t-44 -106t44 -106t126.5 -69
t156 -98t73.5 -177z" />
    <glyph glyph-name="T" unicode="T" 
d="M200 1300h-200v100h500v-100h-200v-1300h-100v1300z" />
    <glyph glyph-name="U" unicode="U" 
d="M100 250q0 -62 44 -106t106 -44t106 44t44 106v1150h100v-1150q0 -103 -73 -176.5t-177 -73.5t-177 73.5t-73 176.5v1150h100v-1150z" />
    <glyph glyph-name="V" unicode="V" 
d="M400 1400h100l-200 -1400h-100l-200 1400h100l150 -1050z" />
    <glyph glyph-name="W" unicode="W" 
d="M50 0l-50 1400h100l40 -1117l110 346l110 -346l40 1117h100l-50 -1400h-100l-100 314l-100 -314h-100z" />
    <glyph glyph-name="X" unicode="X" 
d="M200 800l-150 600h100l100 -400l100 400h100l-150 -600l200 -800h-100l-150 600l-150 -600h-100z" />
    <glyph glyph-name="Y" unicode="Y" 
d="M200 300l-200 1100h100l150 -825l150 825h100l-200 -1100v-300h-100v300z" />
    <glyph glyph-name="Z" unicode="Z" 
d="M129 100h371v-100h-500l371 1300h-321v100h450z" />
    <glyph glyph-name="bracketleft" unicode="[" horiz-adv-x="500" 
d="M500 1600v-100h-400v-1600h400v-100h-500v1800h500z" />
    <glyph glyph-name="backslash" unicode="\" horiz-adv-x="500" 
d="M50 1600l400 -1800h-100l-400 1800h100z" />
    <glyph glyph-name="bracketright" unicode="]" horiz-adv-x="500" 
d="M-100 1600v-100h400v-1600h-400v-100h500v1800h-500z" />
    <glyph glyph-name="asciicircum" unicode="^" 
d="M250 1300l-150 -300h-100l200 400h100l200 -400h-100z" />
    <glyph glyph-name="underscore" unicode="_" 
d="M0 -200v100h600v-100h-600z" />
    <glyph glyph-name="grave" unicode="`" horiz-adv-x="383" 
d="M283 1136l-212 212l-71 -71l212 -212z" />
    <glyph glyph-name="a" unicode="a" 
d="M400 100v500h-150q-62 0 -106 -44t-44 -106v-200q0 -62 44 -106t106 -44h150zM500 775v-775h-250q-104 0 -177 73t-73 177v200q0 103 73 176.5t177 73.5h150v75q0 52 -36.5 88.5t-88.5 36.5t-88.5 -36.5t-36.5 -88.5h-100q0 93 66 159t159 66t159 -66t66 -159z" />
    <glyph glyph-name="b" unicode="b" horiz-adv-x="603" 
d="M100 100v800h150q62 0 106 -44t44 -106v-500q0 -62 -44 -106t-106 -44h-150zM100 1000v300h-100v-1300h250q104 0 177 73t73 177v500q0 103 -73 176.5t-177 73.5h-150z" />
    <glyph glyph-name="c" unicode="c" 
d="M100 250q0 -62 44 -106t106 -44t106 44t44 106h100q0 -103 -73 -176.5t-177 -73.5t-177 73.5t-73 176.5v500q0 104 73 177t177 73t177 -73t73 -177h-100q0 62 -44 106t-106 44t-106 -44t-44 -106v-500z" />
    <glyph glyph-name="d" unicode="d" 
d="M400 100v800h-150q-62 0 -106 -44t-44 -106v-500q0 -62 44 -106t106 -44h150zM400 1000v300h100v-1300h-250q-104 0 -177 73t-73 177v500q0 103 73 176.5t177 73.5h150z" />
    <glyph glyph-name="e" unicode="e" 
d="M100 600v-350q0 -62 44 -106t106 -44t106 44t44 106h100q0 -103 -73 -176.5t-177 -73.5t-177 73.5t-73 176.5v500q0 104 73 177t177 73t177 -73t73 -177v-150h-400zM400 700v50q0 62 -44 106t-106 44t-106 -44t-44 -106v-50h300z" />
    <glyph glyph-name="f" unicode="f" horiz-adv-x="500" 
d="M200 900v-900h-100v900h-100v100h100q0 124 87.5 212t212.5 88v-100q-83 0 -141.5 -58.5t-58.5 -141.5h200v-100h-200z" />
    <glyph glyph-name="g" unicode="g" 
d="M250 900q-62 0 -106 -44t-44 -106v-500q0 -62 44 -106t106 -44h150v800h-150zM400 0h-150q-104 0 -177 73.5t-73 176.5v500q0 104 73 177t177 73h250v-1050q0 -104 -73 -177t-177 -73t-177 73t-73 177h100q0 -62 44 -106t106 -44t106 44t44 106v50z" />
    <glyph glyph-name="h" unicode="h" 
d="M0 0v1300h100v-300h150q104 0 177 -73.5t73 -176.5v-750h-100v750q0 62 -44 106t-106 44h-150v-900h-100z" />
    <glyph glyph-name="i" unicode="i" horiz-adv-x="200" 
d="M100 1000v-1000h-100v1000h100zM50 1200q-21 0 -35.5 14.5t-14.5 35.5q0 20 14.5 35t35.5 15t35.5 -15t14.5 -35q0 -21 -14.5 -35.5t-35.5 -14.5z" />
    <glyph glyph-name="j" unicode="j" 
d="M450 1200q-21 0 -35.5 15t-14.5 35q0 21 14.5 35.5t35.5 14.5t35.5 -14.5t14.5 -35.5q0 -20 -14.5 -35t-35.5 -15zM250 -300q-104 0 -177 73t-73 177h100q0 -62 44 -106t106 -44t106 44t44 106v1050h100v-1050q0 -104 -73 -177t-177 -73z" />
    <glyph glyph-name="k" unicode="k" 
d="M100 500v-500h-100v1300h100v-657l250 357h100l-223 -318l273 -682h-100l-236 591z" />
    <glyph glyph-name="l" unicode="l" horiz-adv-x="200" 
d="M0 0v1300h100v-1300h-100z" />
    <glyph glyph-name="m" unicode="m" horiz-adv-x="1000" 
d="M400 750q0 62 -44 106t-106 44h-150v-900h-100v1000h250q104 0 177 -73q13 -13 23 -26q10 13 23 26q73 73 177 73t177 -73t73 -177v-750h-100v750q0 62 -44 106t-106 44t-106 -44t-44 -106v-750h-100v750z" />
    <glyph glyph-name="n" unicode="n" 
d="M100 900v-900h-100v1000h250q104 0 177 -73t73 -177v-750h-100v750q0 62 -44 106t-106 44h-150z" />
    <glyph glyph-name="o" unicode="o" 
d="M100 250q0 -62 44 -106t106 -44t106 44t44 106v500q0 62 -44 106t-106 44t-106 -44t-44 -106v-500zM250 0q-104 0 -177 73.5t-73 176.5v500q0 104 73 177t177 73t177 -73t73 -177v-500q0 -103 -73 -176.5t-177 -73.5z" />
    <glyph glyph-name="p" unicode="p" 
d="M100 900v-800h150q62 0 106 44t44 106v500q0 62 -44 106t-106 44h-150zM100 0v-300h-100v1300h250q104 0 177 -73t73 -177v-500q0 -103 -73 -176.5t-177 -73.5h-150z" />
    <glyph glyph-name="q" unicode="q" horiz-adv-x="603" 
d="M400 900v-800h-150q-62 0 -106 44t-44 106v500q0 62 44 106t106 44h150zM400 0v-300h100v1300h-250q-104 0 -177 -73t-73 -177v-500q0 -103 73 -176.5t177 -73.5h150z" />
    <glyph glyph-name="r" unicode="r" 
d="M100 900v-900h-100v1000h250q104 0 177 -73t73 -177v-100h-100v100q0 62 -44 106t-106 44h-150z" />
    <glyph glyph-name="s" unicode="s" horiz-adv-x="603" 
d="M100 250q0 -62 43.5 -106t106.5 -44q62 0 106 44t44 106v100q0 62 -44 106t-106 44q-103 0 -176.5 73t-73.5 177t73 177t177 73t177 -73t73 -177h-100q0 62 -44 106t-106 44t-106 -44t-44 -106t44 -106t106 -44q103 0 176.5 -73t73.5 -177v-100q0 -103 -73.5 -176.5
t-176.5 -73.5q-104 0 -177 73.5t-73 176.5v100h100v-100z" />
    <glyph glyph-name="t" unicode="t" horiz-adv-x="500" 
d="M200 900v-600q0 -83 58.5 -141.5t141.5 -58.5v-100q-125 0 -212.5 88t-87.5 212v600h-100v100h100v300h100v-300h200v-100h-200z" />
    <glyph glyph-name="u" unicode="u" 
d="M400 100v900h100v-1000h-250q-104 0 -177 73t-73 177v750h100v-750q0 -62 44 -106t106 -44h150z" />
    <glyph glyph-name="v" unicode="v" 
d="M250 250l150 750h100l-200 -1000h-100l-200 1000h100z" />
    <glyph glyph-name="w" unicode="w" 
d="M50 0l-50 1000h100l36 -724l114 364l114 -364l36 724h100l-50 -1000h-100l-100 320l-100 -320h-100z" />
    <glyph glyph-name="x" unicode="x" 
d="M250 714l100 286h100l-150 -429l200 -571h-100l-150 429l-150 -429h-100l200 571l-150 429h100z" />
    <glyph glyph-name="y" unicode="y" 
d="M200 0l-200 1000h100l150 -750l150 750h100l-260 -1300h-100z" />
    <glyph glyph-name="z" unicode="z" 
d="M140 100h360v-100h-500l360 900h-310v100h450z" />
    <glyph glyph-name="braceleft" unicode="{" horiz-adv-x="400" 
d="M132 750q5 -4 9 -8q59 -59 59 -142v-600q0 -41 29 -70.5t71 -29.5v-100q-83 0 -141.5 58.5t-58.5 141.5v600q0 42 -29.5 71t-70.5 29v100q41 0 70.5 29.5t29.5 70.5v500q0 83 58.5 141.5t141.5 58.5v-100q-42 0 -71 -29t-29 -71v-500q0 -83 -59 -141q-4 -5 -9 -9z" />
    <glyph glyph-name="bar" unicode="|" horiz-adv-x="200" 
d="M0 -200v1800h100v-1800h-100z" />
    <glyph glyph-name="braceright" unicode="}" horiz-adv-x="400" 
d="M168 750q-5 -4 -9 -8q-59 -59 -59 -142v-600q0 -41 -29 -70.5t-71 -29.5v-100q83 0 141.5 58.5t58.5 141.5v600q0 42 29.5 71t70.5 29v100q-41 0 -70.5 29.5t-29.5 70.5v500q0 83 -58.5 141.5t-141.5 58.5v-100q42 0 71 -29t29 -71v-500q0 -83 59 -141q4 -5 9 -9z" />
    <glyph glyph-name="asciitilde" unicode="~" 
d="M287 1048q-52 -46 -121 -46q-68 0 -117 49t-49 118h100q0 -27 20 -47t46 -20q27 0 49 19q50 46 119 46q68 0 117 -49t49 -118h-100q0 27 -19.5 46.5t-46.5 19.5q-26 0 -47 -18z" />
    <glyph glyph-name="exclamdown" unicode="&#xa1;" horiz-adv-x="200" 
d="M100 900v-1200h-100v1200h100zM50 1100q20 0 35 -14.5t15 -35.5t-15 -35.5t-35 -14.5q-21 0 -35.5 14.5t-14.5 35.5t14.5 35.5t35.5 14.5z" />
    <glyph glyph-name="cent" unicode="&#xa2;" 
d="M200 5q-72 13 -127 69q-73 73 -73 176v500q0 104 73 177q55 55 127 68v105h100v-105q72 -13 127 -68q73 -73 73 -177h-100q0 62 -44 106q-25 25 -56 36v-784q31 11 56 36q44 44 44 106h100q0 -103 -73 -176q-55 -56 -127 -69v-105h-100v105zM200 892q-31 -11 -56 -36
q-44 -44 -44 -106v-500q0 -62 44 -106q25 -25 56 -36v784z" />
    <glyph glyph-name="sterling" unicode="&#xa3;" 
d="M198 650q10 -180 -58 -485q13 2 26 2q69 0 119 -46q22 -19 49 -19q26 0 46 20t20 47h100q0 -69 -49 -118t-117 -49q-69 0 -121 46q-21 18 -47 18q-27 0 -46 -19q-7 -7 -12 -15l-8 -32h-100q0 44 20 80q89 366 78 570h-98v100h86q-37 203 -61 261q-25 61 -25 164
q0 93 65.5 159t159.5 66q93 0 159 -66t66 -159h-100q0 51 -37 88t-88 37q-52 0 -88.5 -37t-36.5 -88q0 -62 25 -143q24 -77 61 -282h114v-100h-102z" />
    <glyph glyph-name="currency" unicode="&#xa4;" 
d="M400 700q0 62 -44 106t-106 44t-106 -44t-44 -106q0 -63 44 -106.5t106 -43.5t106 43.5t44 106.5zM111 491l-40 -40l-70 70l40 40q-41 61 -41 139t41 139l-40 40l70 70l40 -40q61 41 139 41t139 -41l40 40l70 -70l-40 -40q41 -61 41 -139t-41 -139l40 -40l-70 -70l-40 40
q-61 -41 -139 -41t-139 41z" />
    <glyph glyph-name="yen" unicode="&#xa5;" 
d="M300 300v-300h-100v300h-200v100h182l-18 100h-164v100h145l-145 800h100l145 -800h10l145 800h100l-145 -800h145v-100h-164l-18 -100h182v-100h-200z" />
    <glyph glyph-name="brokenbar" unicode="&#xa6;" horiz-adv-x="200" 
d="M0 343.994v773.986h100v-773.986h-100zM0 -171.997v773.987h100v-773.987h-100z" />
    <glyph glyph-name="section" unicode="&#xa7;" 
d="M400 750q0 62 -44 106t-106 44t-106 -44t-44 -106t44 -106t106 -44t106 44t44 106zM250 1000q104 0 177 -73q69 -69 73 -167v-10q0 -103 -73 -176q-13 -13 -27 -24q14 -10 27 -23q73 -73 73 -177v-100q0 -103 -73.5 -176.5t-176.5 -73.5q-104 0 -177 73.5t-73 176.5v100
h100v-100q0 -62 43.5 -106t106.5 -44q62 0 106 44t44 106v100q0 62 -44 106t-106 44q-103 0 -176.5 73t-73.5 177t73 177q13 13 26 23q-13 11 -25 23q-74 73 -74 177t73 177t177 73t177 -73t73 -177h-100q0 62 -44 106t-106 44t-106 -44t-44 -106t44 -106t106 -44z" />
    <glyph glyph-name="dieresis" unicode="&#xa8;" 
d="M50 1150q-21 0 -35.5 15t-14.5 35q0 21 14.5 35.5t35.5 14.5t35.5 -14.5t14.5 -35.5q0 -20 -14.5 -35t-35.5 -15zM450 1150q-21 0 -35.5 15t-14.5 35q0 21 14.5 35.5t35.5 14.5t35.5 -14.5t14.5 -35.5q0 -20 -14.5 -35t-35.5 -15z" />
    <glyph glyph-name="copyright" unicode="&#xa9;" 
d="M100 350q0 -62 44 -106t106 -44t106 44t44 106v700q0 62 -44 106t-106 44t-106 -44t-44 -106v-700zM250 100q-104 0 -177 73.5t-73 176.5v700q0 104 73 177t177 73t177 -73t73 -177v-700q0 -103 -73 -176.5t-177 -73.5zM275 925q0 10 -7.5 17.5t-17.5 7.5q-11 0 -18 -7.5
t-7 -17.5v-450q0 -11 7 -18t18 -7q10 0 17.5 7t7.5 18h100q0 -52 -37 -88.5t-88 -36.5q-52 0 -88.5 36.5t-36.5 88.5v450q0 51 36.5 88t88.5 37q51 0 88 -37t37 -88h-100z" />
    <glyph glyph-name="ordfeminine" unicode="&#xaa;" horiz-adv-x="400" 
d="M200 895v229h-41q-24 0 -41.5 -15.5t-17.5 -37.5v-122q0 -22 17.5 -38t41.5 -16h41zM0 600v100h300v-100h-300zM300 1263v-463h-135q-69 0 -117 44t-48 106v120q0 62 48 106t117 44h35v43q0 15 -11 26t-26 11q-16 0 -27 -11t-11 -26h-100q0 57 40.5 97t97.5 40
q56 0 96.5 -40t40.5 -97z" />
    <glyph glyph-name="guillemotleft" unicode="&#xab;" 
d="M200 1300h100l-200 -600l200 -600h-100l-200 600zM400 1300h100l-200 -600l200 -600h-100l-200 600z" />
    <glyph glyph-name="logicalnot" unicode="&#xac;" 
d="M4 1000h496v-200h-100v100h-396v100z" />
    <glyph glyph-name="registered" unicode="&#xae;" 
d="M100 350q0 -62 44 -106t106 -44t106 44t44 106v700q0 62 -44 106t-106 44t-106 -44t-44 -106v-700zM250 100q-104 0 -177 73.5t-73 176.5v700q0 104 73 177t177 73t177 -73t73 -177v-700q0 -103 -73 -176.5t-177 -73.5zM225 950v-350h25q10 0 17.5 7.5t7.5 17.5v300
q0 10 -7.5 17.5t-17.5 7.5h-25zM240 500h-15v-150h-100v700h125q52 0 88.5 -36.5t36.5 -88.5v-300q0 -51 -36 -88q-4 -4 -9 -8l45 -179h-100z" />
    <glyph glyph-name="macron" unicode="&#xaf;" horiz-adv-x="400" 
d="M300 1250v-100h-300v100h300z" />
    <glyph glyph-name="degree" unicode="&#xb0;" horiz-adv-x="500" 
d="M200 1100q-83 0 -141.5 58.5t-58.5 141.5t58.5 141.5t141.5 58.5t141.5 -58.5t58.5 -141.5t-58.5 -141.5t-141.5 -58.5zM270.5 1229.5q29.5 29.5 29.5 70.5q0 42 -29.5 71t-70.5 29t-70.5 -29t-29.5 -71q0 -41 29.5 -70.5t70.5 -29.5t70.5 29.5z" />
    <glyph glyph-name="plusminus" unicode="&#xb1;" 
d="M200 900v200h100v-200h200v-100h-200v-200h-100v200h-200v100h200zM0 400v100h500v-100h-500z" />
    <glyph glyph-name="uni00B2" unicode="&#xb2;" horiz-adv-x="350" 
d="M100 800h150v-100h-250v100q0 152 36.5 238.5t67.5 136.5t38.5 70t7.5 30q0 11 -7.5 18t-17.5 7q-11 0 -18 -7t-7 -18h-100q0 52 36.5 88.5t88.5 36.5t88.5 -36.5t36.5 -88.5t-36.5 -113.5t-68 -124t-38.5 -107t-7 -130.5z" />
    <glyph glyph-name="uni00B3" unicode="&#xb3;" horiz-adv-x="350" 
d="M125 1250q10 0 17.5 7.5t7.5 17.5q0 11 -7.5 18t-17.5 7q-11 0 -18 -7t-7 -18h-100q0 52 36.5 88.5t88.5 36.5t88.5 -36.5t36.5 -88.5q0 -43 -25 -75q25 -32 25 -75v-300q0 -52 -36.5 -88.5t-88.5 -36.5t-88.5 36.5t-36.5 88.5h100q0 -10 7 -17.5t18 -7.5q10 0 17.5 7.5
t7.5 17.5v300q0 11 -7.5 18t-17.5 7h-25v100h25z" />
    <glyph glyph-name="acute" unicode="&#xb4;" horiz-adv-x="383" 
d="M0 1136l212 212l71 -71l-212 -212z" />
    <glyph glyph-name="mu" unicode="&#xb5;" 
d="M100 49v-349h-100v1300h100v-750q0 -62 44 -106t106 -44h150v900h100v-1000h-250q-85 0 -150 49z" />
    <glyph glyph-name="paragraph" unicode="&#xb6;" 
d="M300 400h100v900h-100v-900zM300 300v-300h-100v305q-72 13 -127 69q-73 73 -73 176v600q0 104 73 177t177 73h250v-1400h-100v300h-100z" />
    <glyph glyph-name="periodcentered" unicode="&#xb7;" horiz-adv-x="200" 
d="M50 700q-21 0 -35.5 15t-14.5 35q0 21 14.5 35.5t35.5 14.5t35.5 -14.5t14.5 -35.5q0 -20 -14.5 -35t-35.5 -15z" />
    <glyph glyph-name="periodcentered" unicode="&#x2219;" horiz-adv-x="200" 
d="M50 700q-21 0 -35.5 15t-14.5 35q0 21 14.5 35.5t35.5 14.5t35.5 -14.5t14.5 -35.5q0 -20 -14.5 -35t-35.5 -15z" />
    <glyph glyph-name="cedilla" unicode="&#xb8;" horiz-adv-x="350" 
d="M100 -27q12 2 25 2q52 0 88.5 -36.5t36.5 -88.5v-75q0 -51 -36.5 -88t-88.5 -37t-88.5 37t-36.5 88h100q0 -10 7.5 -17.5t17.5 -7.5t17.5 7.5t7.5 17.5v75q0 11 -7.5 18t-17.5 7t-17.5 -7t-7.5 -18h-100v200h100v-77z" />
    <glyph glyph-name="uni00B9" unicode="&#xb9;" horiz-adv-x="300" 
d="M200 1400v-700h-100v450h-100l100 250h100z" />
    <glyph glyph-name="ordmasculine" unicode="&#xba;" horiz-adv-x="400" 
d="M0 600v100h300v-100h-300zM100 951q0 -21 14.5 -35.5t35.5 -14.5t35.5 14.5t14.5 35.5v298q0 21 -14.5 36t-35.5 15t-35.5 -15t-14.5 -36v-298zM150 800q-62 0 -106 44t-44 106v300q0 62 44 106t106 44t106 -44t44 -106v-300q0 -62 -44 -106t-106 -44z" />
    <glyph glyph-name="guillemotright" unicode="&#xbb;" 
d="M100 1300h-100l200 -600l-200 -600h100l200 600zM300 1300h-100l200 -600l-200 -600h100l200 600z" />
    <glyph glyph-name="onequarter" unicode="&#xbc;" horiz-adv-x="625" 
d="M200 1400v-700h-100v450h-100l100 250h100zM522 1400l-400 -1400h-100l400 1400h100zM400 400l-50 -150h50v150zM400 700h100v-450h25v-100h-25v-150h-100v150h-150v100z" />
    <glyph glyph-name="onehalf" unicode="&#xbd;" horiz-adv-x="700" 
d="M200 1400v-700h-100v450h-100l100 250h100zM522 1400l-400 -1400h-100l400 1400h100zM450 100h150v-100h-250v100q0 152 36.5 238.5t67.5 136.5t38.5 70t7.5 30q0 11 -7.5 18t-17.5 7q-11 0 -18 -7t-7 -18h-100q0 52 36.5 88.5t88.5 36.5t88.5 -36.5t36.5 -88.5
t-36.5 -113.5t-68 -124t-38.5 -107t-7 -130.5z" />
    <glyph glyph-name="threequarters" unicode="&#xbe;" horiz-adv-x="725" 
d="M125 1250q10 0 17.5 7.5t7.5 17.5q0 11 -7.5 18t-17.5 7q-11 0 -18 -7t-7 -18h-100q0 52 36.5 88.5t88.5 36.5t88.5 -36.5t36.5 -88.5q0 -43 -25 -75q25 -32 25 -75v-300q0 -52 -36.5 -88.5t-88.5 -36.5t-88.5 36.5t-36.5 88.5h100q0 -10 7 -17.5t18 -7.5q10 0 17.5 7.5
t7.5 17.5v300q0 11 -7.5 18t-17.5 7h-25v100h25zM600 1400l-400 -1400h-100l400 1400h100zM500 400l-50 -150h50v150zM500 700h100v-450h25v-100h-25v-150h-100v150h-150v100z" />
    <glyph glyph-name="questiondown" unicode="&#xbf;" 
d="M100 100v-150q0 -62 44 -106t106 -44t106 44t44 106v100h100v-100q0 -103 -73 -176.5t-177 -73.5t-177 73.5t-73 176.5v150q0 212 44 306t85.5 144t56 114.5t14.5 235.5h100q0 -212 -44 -306t-85.5 -144t-56 -114.5t-14.5 -235.5zM250 1100q21 0 35.5 -14.5t14.5 -35.5
t-14.5 -35.5t-35.5 -14.5t-35.5 14.5t-14.5 35.5t14.5 35.5t35.5 14.5z" />
    <glyph glyph-name="Agrave" unicode="&#xc0;" 
d="M343 400l-93 650l-93 -650h186zM143 300l-43 -300h-100l200 1400h100l200 -1400h-100l-43 300h-214zM393 1536l-212 212l-71 -71l212 -212z" />
    <glyph glyph-name="Aacute" unicode="&#xc1;" 
d="M343 400l-93 650l-93 -650h186zM143 300l-43 -300h-100l200 1400h100l200 -1400h-100l-43 300h-214zM110 1536l212 212l71 -71l-212 -212z" />
    <glyph glyph-name="Acircumflex" unicode="&#xc2;" 
d="M343 400l-93 650l-93 -650h186zM143 300l-43 -300h-100l200 1400h100l200 -1400h-100l-43 300h-214zM250 1600l-50 -100h-100l100 200h100l100 -200h-100z" />
    <glyph glyph-name="Atilde" unicode="&#xc3;" 
d="M343 400l-93 650l-93 -650h186zM143 300l-43 -300h-100l200 1400h100l200 -1400h-100l-43 300h-214zM281 1544q-44 -44 -106 -44t-106 43.5t-44 106.5h100q0 -21 14.5 -35.5t35.5 -14.5t36 15q44 44 106 44t106 -43.5t44 -106.5h-100q0 21 -14.5 35.5t-35.5 14.5t-36 -15
z" />
    <glyph glyph-name="Adieresis" unicode="&#xc4;" 
d="M343 400l-93 650l-93 -650h186zM143 300l-43 -300h-100l200 1400h100l200 -1400h-100l-43 300h-214zM50 1550q-21 0 -35.5 15t-14.5 35q0 21 14.5 35.5t35.5 14.5t35.5 -14.5t14.5 -35.5q0 -20 -14.5 -35t-35.5 -15zM450 1550q-21 0 -35.5 15t-14.5 35q0 21 14.5 35.5
t35.5 14.5t35.5 -14.5t14.5 -35.5q0 -20 -14.5 -35t-35.5 -15z" />
    <glyph glyph-name="Aring" unicode="&#xc5;" 
d="M343 400l-93 650l-93 -650h186zM143 300l-43 -300h-100l200 1400h100l200 -1400h-100l-43 300h-214zM250 1450q-62 0 -106 43.5t-44 106.5q0 62 44 106t106 44t106 -44t44 -106q0 -63 -44 -106.5t-106 -43.5zM285.5 1564.5q14.5 14.5 14.5 35.5q0 20 -14.5 35t-35.5 15
t-35.5 -15t-14.5 -35q0 -21 14.5 -35.5t35.5 -14.5t35.5 14.5z" />
    <glyph glyph-name="AE" unicode="&#xc6;" horiz-adv-x="1000" 
d="M400 400v643l-185 -643h185zM400 0v300h-213l-87 -300h-100l400 1400h500v-100h-400v-900h250v-100h-250v-200h400v-100h-500z" />
    <glyph glyph-name="Ccedilla" unicode="&#xc7;" 
d="M125 33q-28 16 -52 41q-73 73 -73 176v900q0 104 73 177t177 73t177 -73t73 -177h-100q0 62 -44 106t-106 44t-106 -44t-44 -106v-900q0 -62 44 -106t106 -44t106 44t44 106h100q0 -103 -73 -176.5t-177 -73.5q-13 0 -25 1v-28q12 2 25 2q52 0 88.5 -36.5t36.5 -88.5v-75
q0 -51 -36.5 -88t-88.5 -37t-88.5 37t-36.5 88h100q0 -10 7.5 -17.5t17.5 -7.5t17.5 7.5t7.5 17.5v75q0 11 -7.5 18t-17.5 7t-17.5 -7t-7.5 -18h-100v183z" />
    <glyph glyph-name="Egrave" unicode="&#xc8;" 
d="M500 1400v-100h-400v-300h250v-100h-250v-800h400v-100h-500v1400h500zM393 1536l-212 212l-71 -71l212 -212z" />
    <glyph glyph-name="Eacute" unicode="&#xc9;" 
d="M500 1400v-100h-400v-300h250v-100h-250v-800h400v-100h-500v1400h500zM110 1536l212 212l71 -71l-212 -212z" />
    <glyph glyph-name="Ecircumflex" unicode="&#xca;" 
d="M500 1400v-100h-400v-300h250v-100h-250v-800h400v-100h-500v1400h500zM250 1600l-50 -100h-100l100 200h100l100 -200h-100z" />
    <glyph glyph-name="Edieresis" unicode="&#xcb;" horiz-adv-x="601" 
d="M501 1400v-100h-400v-300h250v-100h-250v-800h400v-100h-500v1400h500zM50 1550q-21 0 -35.5 15t-14.5 35q0 21 14.5 35.5t35.5 14.5t35.5 -14.5t14.5 -35.5q0 -20 -14.5 -35t-35.5 -15zM450 1550q-21 0 -35.5 15t-14.5 35q0 21 14.5 35.5t35.5 14.5t35.5 -14.5
t14.5 -35.5q0 -20 -14.5 -35t-35.5 -15z" />
    <glyph glyph-name="Igrave" unicode="&#xcc;" horiz-adv-x="200" 
d="M0 0v1400h100v-1400h-100zM193 1536l-212 212l-71 -71l212 -212z" />
    <glyph glyph-name="Iacute" unicode="&#xcd;" horiz-adv-x="200" 
d="M0 0v1400h100v-1400h-100zM-90 1536l212 212l71 -71l-212 -212z" />
    <glyph glyph-name="Icircumflex" unicode="&#xce;" horiz-adv-x="200" 
d="M0 0v1400h100v-1400h-100zM50 1600l-50 -100h-100l100 200h100l100 -200h-100z" />
    <glyph glyph-name="Idieresis" unicode="&#xcf;" horiz-adv-x="200" 
d="M0 0v1400h100v-1400h-100zM-150 1550q-21 0 -35.5 15t-14.5 35q0 21 14.5 35.5t35.5 14.5t35.5 -14.5t14.5 -35.5q0 -20 -14.5 -35t-35.5 -15zM250 1550q-21 0 -35.5 15t-14.5 35q0 21 14.5 35.5t35.5 14.5t35.5 -14.5t14.5 -35.5q0 -20 -14.5 -35t-35.5 -15z" />
    <glyph glyph-name="Eth" unicode="&#xd0;" 
d="M200 1000h100v-100h-100v-800h50q62 0 106 44t44 106v900q0 62 -44 106t-106 44h-50v-300zM100 900h-100v100h100v400h150q104 0 177 -73t73 -177v-900q0 -103 -73 -176.5t-177 -73.5h-150v900z" />
    <glyph glyph-name="Ntilde" unicode="&#xd1;" 
d="M400 350v1050h100v-1400h-100l-300 1050v-1050h-100v1400h100zM281 1544q-44 -44 -106 -44t-106 43.5t-44 106.5h100q0 -21 14.5 -35.5t35.5 -14.5t36 15q44 44 106 44t106 -43.5t44 -106.5h-100q0 21 -14.5 35.5t-35.5 14.5t-36 -15z" />
    <glyph glyph-name="Ograve" unicode="&#xd2;" 
d="M250 0q-104 0 -177 73.5t-73 176.5v900q0 104 73 177t177 73t177 -73t73 -177v-900q0 -103 -73 -176.5t-177 -73.5zM100 250q0 -62 44 -106t106 -44t106 44t44 106v900q0 62 -44 106t-106 44t-106 -44t-44 -106v-900zM393 1536l-212 212l-71 -71l212 -212z" />
    <glyph glyph-name="Oacute" unicode="&#xd3;" 
d="M250 0q-104 0 -177 73.5t-73 176.5v900q0 104 73 177t177 73t177 -73t73 -177v-900q0 -103 -73 -176.5t-177 -73.5zM100 250q0 -62 44 -106t106 -44t106 44t44 106v900q0 62 -44 106t-106 44t-106 -44t-44 -106v-900zM110 1536l212 212l71 -71l-212 -212z" />
    <glyph glyph-name="Ocircumflex" unicode="&#xd4;" 
d="M250 0q-104 0 -177 73.5t-73 176.5v900q0 104 73 177t177 73t177 -73t73 -177v-900q0 -103 -73 -176.5t-177 -73.5zM100 250q0 -62 44 -106t106 -44t106 44t44 106v900q0 62 -44 106t-106 44t-106 -44t-44 -106v-900zM250 1600l-50 -100h-100l100 200h100l100 -200h-100z
" />
    <glyph glyph-name="Otilde" unicode="&#xd5;" 
d="M250 0q-104 0 -177 73.5t-73 176.5v900q0 104 73 177t177 73t177 -73t73 -177v-900q0 -103 -73 -176.5t-177 -73.5zM100 250q0 -62 44 -106t106 -44t106 44t44 106v900q0 62 -44 106t-106 44t-106 -44t-44 -106v-900zM281 1544q-44 -44 -106 -44t-106 43.5t-44 106.5h100
q0 -21 14.5 -35.5t35.5 -14.5t36 15q44 44 106 44t106 -43.5t44 -106.5h-100q0 21 -14.5 35.5t-35.5 14.5t-36 -15z" />
    <glyph glyph-name="Odieresis" unicode="&#xd6;" 
d="M250 0q-104 0 -177 73.5t-73 176.5v900q0 104 73 177t177 73t177 -73t73 -177v-900q0 -103 -73 -176.5t-177 -73.5zM100 250q0 -62 44 -106t106 -44t106 44t44 106v900q0 62 -44 106t-106 44t-106 -44t-44 -106v-900zM50 1550q-21 0 -35.5 15t-14.5 35q0 21 14.5 35.5
t35.5 14.5t35.5 -14.5t14.5 -35.5q0 -20 -14.5 -35t-35.5 -15zM450 1550q-21 0 -35.5 15t-14.5 35q0 21 14.5 35.5t35.5 14.5t35.5 -14.5t14.5 -35.5q0 -20 -14.5 -35t-35.5 -15z" />
    <glyph glyph-name="multiply" unicode="&#xd7;" 
d="M180.021 877.8l-141.418 141.418l70.709 70.709l141.418 -141.418l141.419 141.418l70.709 -70.709l-141.418 -141.418l141.418 -141.419l-70.709 -70.709l-141.419 141.418l-141.418 -141.418l-70.709 70.709z" />
    <glyph glyph-name="Oslash" unicode="&#xd8;" 
d="M342 1268q-39 32 -92 32q-62 0 -106 -44t-44 -106v-850zM158 132q39 -32 92 -32q62 0 106 44t44 106v850zM450 1301q50 -65 50 -151v-900q0 -103 -73 -176.5t-177 -73.5q-65 0 -118 29l-32 -129h-100l50 200q-50 65 -50 150v900q0 104 73 177t177 73q65 0 118 -29l32 129
h100z" />
    <glyph glyph-name="Ugrave" unicode="&#xd9;" 
d="M100 250q0 -62 44 -106t106 -44t106 44t44 106v1150h100v-1150q0 -103 -73 -176.5t-177 -73.5t-177 73.5t-73 176.5v1150h100v-1150zM393 1536l-212 212l-71 -71l212 -212z" />
    <glyph glyph-name="Uacute" unicode="&#xda;" 
d="M100 250q0 -62 44 -106t106 -44t106 44t44 106v1150h100v-1150q0 -103 -73 -176.5t-177 -73.5t-177 73.5t-73 176.5v1150h100v-1150zM110 1536l212 212l71 -71l-212 -212z" />
    <glyph glyph-name="Ucircumflex" unicode="&#xdb;" 
d="M100 250q0 -62 44 -106t106 -44t106 44t44 106v1150h100v-1150q0 -103 -73 -176.5t-177 -73.5t-177 73.5t-73 176.5v1150h100v-1150zM250 1600l-50 -100h-100l100 200h100l100 -200h-100z" />
    <glyph glyph-name="Udieresis" unicode="&#xdc;" 
d="M100 250q0 -62 44 -106t106 -44t106 44t44 106v1150h100v-1150q0 -103 -73 -176.5t-177 -73.5t-177 73.5t-73 176.5v1150h100v-1150zM50 1550q-21 0 -35.5 15t-14.5 35q0 21 14.5 35.5t35.5 14.5t35.5 -14.5t14.5 -35.5q0 -20 -14.5 -35t-35.5 -15zM450 1550
q-21 0 -35.5 15t-14.5 35q0 21 14.5 35.5t35.5 14.5t35.5 -14.5t14.5 -35.5q0 -20 -14.5 -35t-35.5 -15z" />
    <glyph glyph-name="Yacute" unicode="&#xdd;" 
d="M200 300l-200 1100h100l150 -825l150 825h100l-200 -1100v-300h-100v300zM110 1536l212 212l71 -71l-212 -212z" />
    <glyph glyph-name="Thorn" unicode="&#xde;" 
d="M100 1200h150q104 0 177 -73t73 -177v-600q0 -103 -73 -176.5t-177 -73.5h-150v-300h-100v1700h100v-300zM100 200h150q62 0 106 44t44 106v600q0 62 -44 106t-106 44h-150v-900z" />
    <glyph glyph-name="germandbls" unicode="&#xdf;" 
d="M250 175q0 -31 22 -53t53 -22t53 22t22 53v375q0 67 -29.5 96t-81 41.5t-95.5 69t-44 118.5t44 106t85.5 56.5t56 52t14.5 85.5q0 52 -36.5 88.5t-88.5 36.5t-88.5 -36.5t-36.5 -88.5v-1175h-100v1175q0 94 66 159.5t159 65.5t159 -65.5t66 -159.5q0 -87 -44 -156
t-85.5 -81.5t-56 -27t-14.5 -35.5t14.5 -48t66.5 -39.5t110.5 -71t58.5 -166.5v-375q0 -72 -51 -123.5t-124 -51.5q-72 0 -123.5 51.5t-51.5 123.5v100h100v-100z" />
    <glyph glyph-name="agrave" unicode="&#xe0;" 
d="M400 100v500h-150q-62 0 -106 -44t-44 -106v-200q0 -62 44 -106t106 -44h150zM500 775v-775h-250q-104 0 -177 73t-73 177v200q0 103 73 176.5t177 73.5h150v75q0 52 -36.5 88.5t-88.5 36.5t-88.5 -36.5t-36.5 -88.5h-100q0 93 66 159t159 66t159 -66t66 -159zM393 1136
l-212 212l-71 -71l212 -212z" />
    <glyph glyph-name="aacute" unicode="&#xe1;" 
d="M400 100v500h-150q-62 0 -106 -44t-44 -106v-200q0 -62 44 -106t106 -44h150zM500 775v-775h-250q-104 0 -177 73t-73 177v200q0 103 73 176.5t177 73.5h150v75q0 52 -36.5 88.5t-88.5 36.5t-88.5 -36.5t-36.5 -88.5h-100q0 93 66 159t159 66t159 -66t66 -159zM110 1136
l212 212l71 -71l-212 -212z" />
    <glyph glyph-name="acircumflex" unicode="&#xe2;" 
d="M400 100v500h-150q-62 0 -106 -44t-44 -106v-200q0 -62 44 -106t106 -44h150zM500 775v-775h-250q-104 0 -177 73t-73 177v200q0 103 73 176.5t177 73.5h150v75q0 52 -36.5 88.5t-88.5 36.5t-88.5 -36.5t-36.5 -88.5h-100q0 93 66 159t159 66t159 -66t66 -159zM250 1200
l-50 -100h-100l100 200h100l100 -200h-100z" />
    <glyph glyph-name="atilde" unicode="&#xe3;" 
d="M400 100v500h-150q-62 0 -106 -44t-44 -106v-200q0 -62 44 -106t106 -44h150zM500 775v-775h-250q-104 0 -177 73t-73 177v200q0 103 73 176.5t177 73.5h150v75q0 52 -36.5 88.5t-88.5 36.5t-88.5 -36.5t-36.5 -88.5h-100q0 93 66 159t159 66t159 -66t66 -159zM281 1144
q-44 -44 -106 -44t-106 43.5t-44 106.5h100q0 -21 14.5 -35.5t35.5 -14.5t36 15q44 44 106 44t106 -43.5t44 -106.5h-100q0 21 -14.5 35.5t-35.5 14.5t-36 -15z" />
    <glyph glyph-name="adieresis" unicode="&#xe4;" 
d="M400 100v500h-150q-62 0 -106 -44t-44 -106v-200q0 -62 44 -106t106 -44h150zM500 775v-775h-250q-104 0 -177 73t-73 177v200q0 103 73 176.5t177 73.5h150v75q0 52 -36.5 88.5t-88.5 36.5t-88.5 -36.5t-36.5 -88.5h-100q0 93 66 159t159 66t159 -66t66 -159zM50 1150
q-21 0 -35.5 15t-14.5 35q0 21 14.5 35.5t35.5 14.5t35.5 -14.5t14.5 -35.5q0 -20 -14.5 -35t-35.5 -15zM450 1150q-21 0 -35.5 15t-14.5 35q0 21 14.5 35.5t35.5 14.5t35.5 -14.5t14.5 -35.5q0 -20 -14.5 -35t-35.5 -15z" />
    <glyph glyph-name="aring" unicode="&#xe5;" 
d="M400 100v500h-150q-62 0 -106 -44t-44 -106v-200q0 -62 44 -106t106 -44h150zM500 775v-775h-250q-104 0 -177 73t-73 177v200q0 103 73 176.5t177 73.5h150v75q0 52 -36.5 88.5t-88.5 36.5t-88.5 -36.5t-36.5 -88.5h-100q0 93 66 159t159 66t159 -66t66 -159zM300 1050
q-62 0 -106 43.5t-44 106.5q0 62 44 106t106 44t106 -44t44 -106q0 -63 -44 -106.5t-106 -43.5zM335.5 1164.5q14.5 14.5 14.5 35.5q0 20 -14.5 35t-35.5 15t-35.5 -15t-14.5 -35q0 -21 14.5 -35.5t35.5 -14.5t35.5 14.5z" />
    <glyph glyph-name="ae" unicode="&#xe6;" horiz-adv-x="1000" 
d="M500 50v-50h-250q-104 0 -177 73t-73 177v200q0 103 73 176.5t177 73.5h150v75q0 52 -36.5 88.5t-88.5 36.5t-88.5 -36.5t-36.5 -88.5h-100q0 93 66 159t159 66t159 -66q12 -12 22 -25q8 9 17 18q73 73 177 73t177 -73t73 -177v-150h-400v-350q0 -62 44 -106t106 -44
t106 44t44 106h100q0 -103 -73 -176.5t-177 -73.5q-85 0 -150 50zM500 700h300v50q0 62 -44 106t-106 44t-106 -44t-44 -106v-50zM400 600h-150q-62 0 -106 -44t-44 -106v-200q0 -62 44 -106t106 -44h150v500z" />
    <glyph glyph-name="ccedilla" unicode="&#xe7;" 
d="M125 33q-28 16 -52 41q-73 73 -73 176v500q0 104 73 177t177 73t177 -73t73 -177h-100q0 62 -44 106t-106 44t-106 -44t-44 -106v-500q0 -62 44 -106t106 -44t106 44t44 106h100q0 -103 -73 -176.5t-177 -73.5q-13 0 -25 1v-28q12 2 25 2q52 0 88.5 -36.5t36.5 -88.5v-75
q0 -51 -36.5 -88t-88.5 -37t-88.5 37t-36.5 88h100q0 -10 7.5 -17.5t17.5 -7.5t17.5 7.5t7.5 17.5v75q0 11 -7.5 18t-17.5 7t-17.5 -7t-7.5 -18h-100v183z" />
    <glyph glyph-name="egrave" unicode="&#xe8;" 
d="M100 600v-350q0 -62 44 -106t106 -44t106 44t44 106h100q0 -103 -73 -176.5t-177 -73.5t-177 73.5t-73 176.5v500q0 104 73 177t177 73t177 -73t73 -177v-150h-400zM400 700v50q0 62 -44 106t-106 44t-106 -44t-44 -106v-50h300zM393 1136l-212 212l-71 -71l212 -212z
" />
    <glyph glyph-name="eacute" unicode="&#xe9;" 
d="M100 600v-350q0 -62 44 -106t106 -44t106 44t44 106h100q0 -103 -73 -176.5t-177 -73.5t-177 73.5t-73 176.5v500q0 104 73 177t177 73t177 -73t73 -177v-150h-400zM400 700v50q0 62 -44 106t-106 44t-106 -44t-44 -106v-50h300zM110 1136l212 212l71 -71l-212 -212z" />
    <glyph glyph-name="ecircumflex" unicode="&#xea;" 
d="M100 600v-350q0 -62 44 -106t106 -44t106 44t44 106h100q0 -103 -73 -176.5t-177 -73.5t-177 73.5t-73 176.5v500q0 104 73 177t177 73t177 -73t73 -177v-150h-400zM400 700v50q0 62 -44 106t-106 44t-106 -44t-44 -106v-50h300zM250 1200l-50 -100h-100l100 200h100
l100 -200h-100z" />
    <glyph glyph-name="edieresis" unicode="&#xeb;" 
d="M100 600v-350q0 -62 44 -106t106 -44t106 44t44 106h100q0 -103 -73 -176.5t-177 -73.5t-177 73.5t-73 176.5v500q0 104 73 177t177 73t177 -73t73 -177v-150h-400zM400 700v50q0 62 -44 106t-106 44t-106 -44t-44 -106v-50h300zM50 1150q-21 0 -35.5 15t-14.5 35
q0 21 14.5 35.5t35.5 14.5t35.5 -14.5t14.5 -35.5q0 -20 -14.5 -35t-35.5 -15zM450 1150q-21 0 -35.5 15t-14.5 35q0 21 14.5 35.5t35.5 14.5t35.5 -14.5t14.5 -35.5q0 -20 -14.5 -35t-35.5 -15z" />
    <glyph glyph-name="igrave" unicode="&#xec;" horiz-adv-x="200" 
d="M100 1000v-1000h-100v1000h100zM193 1136l-212 212l-71 -71l212 -212z" />
    <glyph glyph-name="iacute" unicode="&#xed;" horiz-adv-x="200" 
d="M100 1000v-1000h-100v1000h100zM-90 1136l212 212l71 -71l-212 -212z" />
    <glyph glyph-name="icircumflex" unicode="&#xee;" horiz-adv-x="200" 
d="M100 1000v-1000h-100v1000h100zM50 1200l-50 -100h-100l100 200h100l100 -200h-100z" />
    <glyph glyph-name="idieresis" unicode="&#xef;" horiz-adv-x="400" 
d="M100 1000v-1000h-100v1000h100zM-150 1150q-21 0 -35.5 15t-14.5 35q0 21 14.5 35.5t35.5 14.5t35.5 -14.5t14.5 -35.5q0 -20 -14.5 -35t-35.5 -15zM250 1150q-21 0 -35.5 15t-14.5 35q0 21 14.5 35.5t35.5 14.5t35.5 -14.5t14.5 -35.5q0 -20 -14.5 -35t-35.5 -15z" />
    <glyph glyph-name="eth" unicode="&#xf0;" horiz-adv-x="650" 
d="M100 250q0 -62 44 -106t106 -44t106 44t44 106v500q0 62 -44 106t-106 44t-106 -44t-44 -106v-500zM396 1086l-72 -34l-42 90l59 28q-39 30 -91 30q-62 0 -106 -44l-71 71q73 73 177 73t177 -73q6 -6 11 -12l70 33l42 -90l-62 -29q12 -37 12 -79v-800q0 -103 -73 -176.5
t-177 -73.5t-177 73.5t-73 176.5v500q0 104 73 177t177 73q85 0 150 -49v99q0 19 -4 36z" />
    <glyph glyph-name="ntilde" unicode="&#xf1;" 
d="M100 900v-900h-100v1000h250q104 0 177 -73t73 -177v-750h-100v750q0 62 -44 106t-106 44h-150zM281 1144q-44 -44 -106 -44t-106 43.5t-44 106.5h100q0 -21 14.5 -35.5t35.5 -14.5t36 15q44 44 106 44t106 -43.5t44 -106.5h-100q0 21 -14.5 35.5t-35.5 14.5t-36 -15z
" />
    <glyph glyph-name="ograve" unicode="&#xf2;" 
d="M100 250q0 -62 44 -106t106 -44t106 44t44 106v500q0 62 -44 106t-106 44t-106 -44t-44 -106v-500zM250 0q-104 0 -177 73.5t-73 176.5v500q0 104 73 177t177 73t177 -73t73 -177v-500q0 -103 -73 -176.5t-177 -73.5zM393 1136l-212 212l-71 -71l212 -212z" />
    <glyph glyph-name="oacute" unicode="&#xf3;" 
d="M100 250q0 -62 44 -106t106 -44t106 44t44 106v500q0 62 -44 106t-106 44t-106 -44t-44 -106v-500zM250 0q-104 0 -177 73.5t-73 176.5v500q0 104 73 177t177 73t177 -73t73 -177v-500q0 -103 -73 -176.5t-177 -73.5zM110 1136l212 212l71 -71l-212 -212z" />
    <glyph glyph-name="ocircumflex" unicode="&#xf4;" 
d="M100 250q0 -62 44 -106t106 -44t106 44t44 106v500q0 62 -44 106t-106 44t-106 -44t-44 -106v-500zM250 0q-104 0 -177 73.5t-73 176.5v500q0 104 73 177t177 73t177 -73t73 -177v-500q0 -103 -73 -176.5t-177 -73.5zM250 1200l-50 -100h-100l100 200h100l100 -200h-100z
" />
    <glyph glyph-name="otilde" unicode="&#xf5;" 
d="M100 250q0 -62 44 -106t106 -44t106 44t44 106v500q0 62 -44 106t-106 44t-106 -44t-44 -106v-500zM250 0q-104 0 -177 73.5t-73 176.5v500q0 104 73 177t177 73t177 -73t73 -177v-500q0 -103 -73 -176.5t-177 -73.5zM281 1144q-44 -44 -106 -44t-106 43.5t-44 106.5h100
q0 -21 14.5 -35.5t35.5 -14.5t36 15q44 44 106 44t106 -43.5t44 -106.5h-100q0 21 -14.5 35.5t-35.5 14.5t-36 -15z" />
    <glyph glyph-name="odieresis" unicode="&#xf6;" 
d="M100 250q0 -62 44 -106t106 -44t106 44t44 106v500q0 62 -44 106t-106 44t-106 -44t-44 -106v-500zM250 0q-104 0 -177 73.5t-73 176.5v500q0 104 73 177t177 73t177 -73t73 -177v-500q0 -103 -73 -176.5t-177 -73.5zM50 1150q-21 0 -35.5 15t-14.5 35q0 21 14.5 35.5
t35.5 14.5t35.5 -14.5t14.5 -35.5q0 -20 -14.5 -35t-35.5 -15zM450 1150q-21 0 -35.5 15t-14.5 35q0 21 14.5 35.5t35.5 14.5t35.5 -14.5t14.5 -35.5q0 -20 -14.5 -35t-35.5 -15z" />
    <glyph glyph-name="divide" unicode="&#xf7;" 
d="M0 900v100h500v-100h-500zM250 700q-21 0 -35.5 15t-14.5 35q0 21 14.5 35.5t35.5 14.5t35.5 -14.5t14.5 -35.5q0 -20 -14.5 -35t-35.5 -15zM250 1100q-21 0 -35.5 15t-14.5 35q0 21 14.5 35.5t35.5 14.5t35.5 -14.5t14.5 -35.5q0 -20 -14.5 -35t-35.5 -15z" />
    <glyph glyph-name="oslash" unicode="&#xf8;" 
d="M438 915q62 -69 62 -165v-500q0 -103 -73 -176.5t-177 -73.5q-59 0 -109 24l-41 -124h-100l62 185q-62 70 -62 165v500q0 104 73 177t177 73q59 0 109 -24l41 124h100zM104 213l222 666q-34 21 -76 21q-62 0 -106 -44t-44 -106v-500q0 -19 4 -37zM396 787l-222 -666
q34 -21 76 -21q62 0 106 44t44 106v500q0 19 -4 37z" />
    <glyph glyph-name="ugrave" unicode="&#xf9;" 
d="M400 100v900h100v-1000h-250q-104 0 -177 73t-73 177v750h100v-750q0 -62 44 -106t106 -44h150zM393 1136l-212 212l-71 -71l212 -212z" />
    <glyph glyph-name="uacute" unicode="&#xfa;" 
d="M400 100v900h100v-1000h-250q-104 0 -177 73t-73 177v750h100v-750q0 -62 44 -106t106 -44h150zM110 1136l212 212l71 -71l-212 -212z" />
    <glyph glyph-name="ucircumflex" unicode="&#xfb;" 
d="M400 100v900h100v-1000h-250q-104 0 -177 73t-73 177v750h100v-750q0 -62 44 -106t106 -44h150zM250 1200l-50 -100h-100l100 200h100l100 -200h-100z" />
    <glyph glyph-name="udieresis" unicode="&#xfc;" 
d="M400 100v900h100v-1000h-250q-104 0 -177 73t-73 177v750h100v-750q0 -62 44 -106t106 -44h150zM49 1150q-21 0 -35.5 15t-14.5 35q0 21 14.5 35.5t35.5 14.5t35.5 -14.5t14.5 -35.5q0 -20 -14.5 -35t-35.5 -15zM449 1150q-21 0 -35.5 15t-14.5 35q0 21 14.5 35.5
t35.5 14.5t35.5 -14.5t14.5 -35.5q0 -20 -14.5 -35t-35.5 -15z" />
    <glyph glyph-name="yacute" unicode="&#xfd;" 
d="M200 0l-200 1000h100l150 -750l150 750h100l-260 -1300h-100zM110 1136l212 212l71 -71l-212 -212z" />
    <glyph glyph-name="thorn" unicode="&#xfe;" 
d="M100 1000h150q104 0 177 -73t73 -177v-500q0 -103 -73 -176.5t-177 -73.5h-150v-300h-100v1600h100v-300zM100 100h150q62 0 106 44t44 106v500q0 62 -44 106t-106 44h-150v-800z" />
    <glyph glyph-name="ydieresis" unicode="&#xff;" 
d="M200 0l-200 1000h100l150 -750l150 750h100l-260 -1300h-100zM50 1150q-21 0 -35.5 15t-14.5 35q0 21 14.5 35.5t35.5 14.5t35.5 -14.5t14.5 -35.5q0 -20 -14.5 -35t-35.5 -15zM450 1150q-21 0 -35.5 15t-14.5 35q0 21 14.5 35.5t35.5 14.5t35.5 -14.5t14.5 -35.5
q0 -20 -14.5 -35t-35.5 -15z" />
    <glyph glyph-name="dotlessi" unicode="&#x131;" horiz-adv-x="200" 
d="M100 1000v-1000h-100v1000h100z" />
    <glyph glyph-name="circumflex" unicode="&#x2c6;" horiz-adv-x="400" 
d="M150 1200l-50 -100h-100l100 200h100l100 -200h-100z" />
    <glyph glyph-name="caron" unicode="&#x2c7;" horiz-adv-x="400" 
d="M150 1200l-50 100h-100l100 -200h100l100 200h-100z" />
    <glyph glyph-name="uni02C9" unicode="&#x2c9;" horiz-adv-x="400" 
d="M300 1250v-100h-300v100h300z" />
    <glyph glyph-name="breve" unicode="&#x2d8;" horiz-adv-x="400" 
d="M200 1250h100q0 -63 -44 -106.5t-106 -43.5t-106 43.5t-44 106.5h100q0 -21 14.5 -35.5t35.5 -14.5t35.5 14.5t14.5 35.5z" />
    <glyph glyph-name="dotaccent" unicode="&#x2d9;" horiz-adv-x="200" 
d="M50 1150q-21 0 -35.5 15t-14.5 35q0 21 14.5 35.5t35.5 14.5t35.5 -14.5t14.5 -35.5q0 -20 -14.5 -35t-35.5 -15z" />
    <glyph glyph-name="ring" unicode="&#x2da;" horiz-adv-x="400" 
d="M150 1050q-62 0 -106 43.5t-44 106.5q0 62 44 106t106 44t106 -44t44 -106q0 -63 -44 -106.5t-106 -43.5zM185.5 1164.5q14.5 14.5 14.5 35.5q0 20 -14.5 35t-35.5 15t-35.5 -15t-14.5 -35q0 -21 14.5 -35.5t35.5 -14.5t35.5 14.5z" />
    <glyph glyph-name="ogonek" unicode="&#x2db;" horiz-adv-x="200" 
d="M50 -50q21 0 35.5 -14.5t14.5 -35.5t-14.5 -35.5t-35.5 -14.5t-35.5 14.5t-14.5 35.5t20 60.5t80 89.5q-50 -75 -50 -100z" />
    <glyph glyph-name="tilde" unicode="&#x2dc;" horiz-adv-x="542" 
d="M256 1144q-44 -44 -106 -44t-106 43.5t-44 106.5h100q0 -21 14.5 -35.5t35.5 -14.5t36 15q44 44 106 44t106 -43.5t44 -106.5h-100q0 21 -14.5 35.5t-35.5 14.5t-36 -15z" />
    <glyph glyph-name="hungarumlaut" unicode="&#x2dd;" horiz-adv-x="683" 
d="M0 1136l212 212l71 -71l-212 -212zM300 1136l212 212l71 -71l-212 -212z" />
    <glyph glyph-name="endash" unicode="&#x2013;" horiz-adv-x="850" 
d="M0 900v100h750v-100h-750z" />
    <glyph glyph-name="emdash" unicode="&#x2014;" horiz-adv-x="1200" 
d="M0 900v100h1100v-100h-1100z" />
    <glyph glyph-name="quoteleft" unicode="&#x2018;" horiz-adv-x="200" 
d="M50 1300q21 0 35.5 14.5t14.5 35.5t-14.5 35.5t-35.5 14.5t-35.5 -14.5t-14.5 -35.5t20 -60.5t80 -89.5q-50 75 -50 100z" />
    <glyph glyph-name="quoteright" unicode="&#x2019;" horiz-adv-x="200" 
d="M50 1300q-21 0 -35.5 14.5t-14.5 35.5t14.5 35.5t35.5 14.5t35.5 -14.5t14.5 -35.5t-20 -60.5t-80 -89.5q50 75 50 100z" />
    <glyph glyph-name="quotesinglbase" unicode="&#x201a;" horiz-adv-x="200" 
d="M50 0q-21 0 -35.5 14.5t-14.5 35.5t14.5 35.5t35.5 14.5t35.5 -14.5t14.5 -35.5t-20 -60.5t-80 -89.5q50 75 50 100z" />
    <glyph glyph-name="quotedblleft" unicode="&#x201c;" horiz-adv-x="340" 
d="M50 1300q21 0 35.5 14.5t14.5 35.5t-14.5 35.5t-35.5 14.5t-35.5 -14.5t-14.5 -35.5t20 -60.5t80 -89.5q-50 75 -50 100zM190 1300q21 0 35.5 14.5t14.5 35.5t-14.5 35.5t-35.5 14.5t-35.5 -14.5t-14.5 -35.5t20 -60.5t80 -89.5q-50 75 -50 100z" />
    <glyph glyph-name="quotedblright" unicode="&#x201d;" horiz-adv-x="340" 
d="M50 1300q-21 0 -35.5 14.5t-14.5 35.5t14.5 35.5t35.5 14.5t35.5 -14.5t14.5 -35.5t-20 -60.5t-80 -89.5q50 75 50 100zM190 1300q-21 0 -35.5 14.5t-14.5 35.5t14.5 35.5t35.5 14.5t35.5 -14.5t14.5 -35.5t-20 -60.5t-80 -89.5q50 75 50 100z" />
    <glyph glyph-name="quotedblbase" unicode="&#x201e;" horiz-adv-x="340" 
d="M50 0q-21 0 -35.5 14.5t-14.5 35.5t14.5 35.5t35.5 14.5t35.5 -14.5t14.5 -35.5t-20 -60.5t-80 -89.5q50 75 50 100zM190 0q-21 0 -35.5 14.5t-14.5 35.5t14.5 35.5t35.5 14.5t35.5 -14.5t14.5 -35.5t-20 -60.5t-80 -89.5q50 75 50 100z" />
    <glyph glyph-name="dagger" unicode="&#x2020;" 
d="M200 1100h-200v100h200v400h100v-400h200v-100h-200v-1300h-100v1300z" />
    <glyph glyph-name="daggerdbl" unicode="&#x2021;" 
d="M200 200h-200v100h200v800h-200v100h200v400h100v-400h200v-100h-200v-800h200v-100h-200v-400h-100v400z" />
    <glyph glyph-name="bullet" unicode="&#x2022;" horiz-adv-x="400" 
d="M150 600q-62 0 -106 44t-44 106t44 106t106 44t106 -44t44 -106t-44 -106t-106 -44z" />
    <glyph glyph-name="ellipsis" unicode="&#x2026;" horiz-adv-x="700" 
d="M50 0q-21 0 -35.5 15t-14.5 35q0 21 14.5 35.5t35.5 14.5t35.5 -14.5t14.5 -35.5q0 -20 -14.5 -35t-35.5 -15zM300 0q-21 0 -35.5 15t-14.5 35q0 21 14.5 35.5t35.5 14.5t35.5 -14.5t14.5 -35.5q0 -20 -14.5 -35t-35.5 -15zM550 0q-21 0 -35.5 15t-14.5 35
q0 21 14.5 35.5t35.5 14.5t35.5 -14.5t14.5 -35.5q0 -20 -14.5 -35t-35.5 -15z" />
    <glyph glyph-name="guilsinglleft" unicode="&#x2039;" horiz-adv-x="400" 
d="M200 1300h100l-200 -600l200 -600h-100l-200 600z" />
    <glyph glyph-name="guilsinglright" unicode="&#x203a;" horiz-adv-x="400" 
d="M100 1300h-100l200 -600l-200 -600h100l200 600z" />
    <glyph glyph-name="fraction" unicode="&#x2044;" 
d="M500 1400l-400 -1400h-100l400 1400h100z" />
    <glyph glyph-name="fraction" unicode="&#x2215;" 
d="M500 1400l-400 -1400h-100l400 1400h100z" />
    <glyph glyph-name="franc" unicode="&#x20a3;" 
d="M0 400v1000h500v-100h-400v-300h250v-100h-250v-500h100v-100h-100v-300h-100v300h-100v100h100z" />
    <glyph glyph-name="lira" unicode="&#x20a4;" 
d="M76 800q-30 161 -51 211q-25 61 -25 164q0 93 65.5 159t159.5 66q93 0 159 -66t66 -159h-100q0 51 -37 88t-88 37q-52 0 -88.5 -37t-36.5 -88q0 -62 25 -143q21 -68 51 -232h124v-100h-106q6 -45 5 -100h101v-100h-105q-12 -143 -55 -335q13 2 26 2q69 0 119 -46
q22 -19 49 -19q26 0 46 20t20 47h100q0 -69 -49 -118t-117 -49q-69 0 -121 46q-21 18 -47 18q-27 0 -46 -19q-7 -7 -12 -15l-8 -32h-100q0 44 20 80q60 247 75 420h-95v100h99q1 55 -5 100h-94v100h76z" />
    <glyph glyph-name="peseta" unicode="&#x20a7;" horiz-adv-x="1350" 
d="M90 1300v-900h135q56 0 95.5 44t39.5 106v600q0 62 -39.5 106t-95.5 44h-135zM450 900v-350q0 -103 -65.5 -176.5t-159.5 -73.5h-135v-300h-90v1400h225q94 0 159.5 -73t65.5 -177v-150h50v300h100v-300h200v-99q10 13 23 26q73 73 177 73t177 -73t73 -177h-100
q0 62 -44 106t-106 44t-106 -44t-44 -106t44 -106t106 -44q103 0 176.5 -73t73.5 -177v-100q0 -103 -73.5 -176.5t-176.5 -73.5q-104 0 -177 74q-13 12 -23 26v-100q-125 0 -212.5 88t-87.5 212v600h-50zM799 900h-199v-600q0 -83 59 -141q58 -59 141 -59q-50 65 -50 150
v100h100v-100q0 -62 43.5 -106t106.5 -44q62 0 106 44t44 106v100q0 62 -44 106t-106 44q-103 0 -176.5 73t-73.5 177q0 85 49 150z" />
    <glyph glyph-name="Euro" unicode="&#x20ac;" horiz-adv-x="700" 
d="M200 600v-350q0 -62 44 -106t106 -44t106 44t44 106h100q0 -103 -73 -176.5t-177 -73.5t-177 73.5t-73 176.5v350h-100v100h100v100h-100v100h100v250q0 104 73 177t177 73t177 -73t73 -177h-100q0 62 -44 106t-106 44t-106 -44t-44 -106v-250h400v-100h-400v-100h400
v-100h-400z" />
    <glyph glyph-name="uni2116" unicode="&#x2116;" horiz-adv-x="1000" 
d="M400 350v1050h100v-1400h-100l-300 1050v-1050h-100v1400h100zM600 600v100h300v-100h-300zM700 951q0 -21 14.5 -35.5t35.5 -14.5t35.5 14.5t14.5 35.5v298q0 21 -14.5 36t-35.5 15t-35.5 -15t-14.5 -36v-298zM750 800q-62 0 -106 44t-44 106v300q0 62 44 106t106 44
t106 -44t44 -106v-300q0 -62 -44 -106t-106 -44z" />
    <glyph glyph-name="trademark" unicode="&#x2122;" horiz-adv-x="750" 
d="M100 1400h-100v100h300v-100h-100v-600h-100v600zM450 1300v-500h-100v700h100l50 -100l50 100h100v-700h-100v500l-50 -100z" />
    <glyph glyph-name="partialdiff" unicode="&#x2202;" horiz-adv-x="603" 
d="M400 1000v50q0 62 -44 106t-106 44t-106 -44t-44 -106h-100q0 104 73 177t177 73t177 -73t73 -177v-700q0 -103 -73 -176.5t-177 -73.5t-177 73.5t-73 176.5v400q0 104 73 177t177 73h150zM250 900q-62 0 -106 -44t-44 -106v-400q0 -62 44 -106t106 -44t106 44t44 106
v550h-150z" />
    <glyph glyph-name="Delta" unicode="&#x2206;" 
d="M386 100l-136 950l-136 -950h272zM0 0l200 1400h100l200 -1400h-500z" />
    <glyph glyph-name="product" unicode="&#x220f;" 
d="M500 1400v-1400h-100v1300h-300v-1300h-100v1400h500z" />
    <glyph glyph-name="summation" unicode="&#x2211;" 
d="M0 1400h500v-100h-371l171 -600l-171 -600h371v-100h-500l200 700z" />
    <glyph glyph-name="minus" unicode="&#x2212;" 
d="M0 900v100h500v-100h-500z" />
    <glyph glyph-name="radical" unicode="&#x221a;" 
d="M250 350l150 1050h100l-200 -1400h-100l-129 900h-71v100h157z" />
    <glyph glyph-name="infinity" unicode="&#x221e;" horiz-adv-x="800" 
d="M125 975q77 0 151 -36q33 -17 59 -32q25 15 52 31q62 37 188 37q52 0 88.5 -37t36.5 -88q0 -52 -36.5 -88.5t-88.5 -36.5q-126 0 -188 37q-27 16 -52 31q-26 -15 -59 -31q-74 -37 -151 -37q-51 0 -88 36.5t-37 88.5q0 51 37 88t88 37zM417 850q21 -13 41 -17
q32 -8 117 -8q11 0 18 7t7 18q0 10 -7 17.5t-18 7.5q-85 0 -117 -7q-20 -5 -41 -18zM240 850q-27 14 -47 18q-32 7 -68 7q-10 0 -17.5 -7.5t-7.5 -17.5q0 -11 7.5 -18t17.5 -7q36 0 68 7q20 4 47 18z" />
    <glyph glyph-name="integral" unicode="&#x222b;" 
d="M200 1450q0 62 44 106t106 44q63 0 106.5 -44t43.5 -106h-100q0 21 -14.5 35.5t-35.5 14.5q-20 0 -35 -14.5t-15 -35.5v-1500q0 -62 -43.5 -106t-106.5 -44q-62 0 -106 44t-44 106h100q0 -21 15 -35.5t35 -14.5q21 0 35.5 14.5t14.5 35.5v1500z" />
    <glyph glyph-name="approxequal" unicode="&#x2248;" 
d="M287 948q-52 -46 -121 -46q-68 0 -117 49t-49 118h100q0 -27 20 -47t46 -20q27 0 49 19q50 46 119 46q68 0 117 -49t49 -118h-100q0 27 -19.5 46.5t-46.5 19.5q-26 0 -47 -18zM287 748q-52 -46 -121 -46q-68 0 -117 49t-49 118h100q0 -27 20 -47t46 -20q27 0 49 19
q50 46 119 46q68 0 117 -49t49 -118h-100q0 27 -19.5 46.5t-46.5 19.5q-26 0 -47 -18z" />
    <glyph glyph-name="lessequal" unicode="&#x2264;" 
d="M0 900l500 200v-100l-375 -150l375 -150v-100l-500 200v100zM0 400v100h500v-100h-500z" />
    <glyph glyph-name="greaterequal" unicode="&#x2265;" 
d="M500 900l-500 200v-100l375 -150l-375 -150v-100l500 200v100zM0 400v100h500v-100h-500z" />
    <glyph glyph-name="uniF001" unicode="&#xf001;" horiz-adv-x="700" 
d="M200 900v-900h-100v900h-100v100h100q0 124 87.5 212t212.5 88v-100q-83 0 -141.5 -58.5t-58.5 -141.5h200v-100h-200zM600 1000v-1000h-100v1000h100zM550 1200q-21 0 -35.5 14.5t-14.5 35.5q0 20 14.5 35t35.5 15t35.5 -15t14.5 -35q0 -21 -14.5 -35.5t-35.5 -14.5z
" />
    <glyph glyph-name="uniF001" unicode="&#xfb01;" horiz-adv-x="700" 
d="M200 900v-900h-100v900h-100v100h100q0 124 87.5 212t212.5 88v-100q-83 0 -141.5 -58.5t-58.5 -141.5h200v-100h-200zM600 1000v-1000h-100v1000h100zM550 1200q-21 0 -35.5 14.5t-14.5 35.5q0 20 14.5 35t35.5 15t35.5 -15t14.5 -35q0 -21 -14.5 -35.5t-35.5 -14.5z
" />
    <glyph glyph-name="uniF002" unicode="&#xf002;" horiz-adv-x="700" 
d="M200 900v-900h-100v900h-100v100h100q0 124 87.5 212t212.5 88v-100q-83 0 -141.5 -58.5t-58.5 -141.5h200v-100h-200zM500 0v1300h100v-1300h-100z" />
    <glyph glyph-name="uniF002" unicode="&#xfb02;" horiz-adv-x="700" 
d="M200 900v-900h-100v900h-100v100h100q0 124 87.5 212t212.5 88v-100q-83 0 -141.5 -58.5t-58.5 -141.5h200v-100h-200zM500 0v1300h100v-1300h-100z" />
    <glyph glyph-name="OE" unicode="&#x152;" horiz-adv-x="1000" 
d="M400 50q-65 -50 -150 -50q-104 0 -177 73.5t-73 176.5v900q0 104 73 177t177 73q85 0 150 -49v49h500v-100h-400v-300h250v-100h-250v-800h400v-100h-500v50zM400 1150q0 62 -44 106t-106 44t-106 -44t-44 -106v-900q0 -62 44 -106t106 -44t106 44t44 106v900z" />
    <glyph glyph-name="oe" unicode="&#x153;" horiz-adv-x="1000" 
d="M450 100q-10 -14 -23 -26q-73 -74 -177 -74t-177 73.5t-73 176.5v500q0 104 73 177t177 73t177 -73q13 -13 23 -26q10 13 23 26q73 73 177 73t177 -73t73 -177v-150h-400v-350q0 -62 44 -106t106 -44t106 44t44 106h100q0 -103 -73 -176.5t-177 -73.5t-177 74
q-13 12 -23 26zM500 700h300v50q0 62 -44 106t-106 44t-106 -44t-44 -106v-50zM400 750q0 62 -44 106t-106 44t-106 -44t-44 -106v-500q0 -62 44 -106t106 -44t106 44t44 106v500z" />
    <glyph glyph-name="uni2074" unicode="&#x2074;" horiz-adv-x="375" 
d="M150 1100l-50 -150h50v150zM150 1400h100v-450h25v-100h-25v-150h-100v150h-150v100z" />
    <glyph glyph-name="uni2075" unicode="&#x2075;" horiz-adv-x="350" 
d="M100 1198q12 2 25 2q52 0 88.5 -36.5t36.5 -88.5v-250q0 -51 -36.5 -88t-88.5 -37t-88.5 37t-36.5 88h100q0 -10 7.5 -17.5t17.5 -7.5t17.5 7.5t7.5 17.5v250q0 11 -7.5 18t-17.5 7t-17.5 -7t-7.5 -18h-100v325h250v-100h-150v-102z" />
    <glyph glyph-name="uni2076" unicode="&#x2076;" horiz-adv-x="350" 
d="M100 1198q12 2 25 2q52 0 88.5 -36.5t36.5 -88.5v-250q0 -51 -36.5 -88t-88.5 -37t-88.5 37t-36.5 88v450q0 52 36.5 88.5t88.5 36.5t88.5 -36.5t36.5 -88.5h-100q0 11 -7 18t-18 7q-10 0 -17.5 -7t-7.5 -18v-77zM100 824q0 -10 7.5 -17t17.5 -7t17.5 7t7.5 17v252
q0 10 -7.5 17.5t-17.5 7.5t-17.5 -7.5t-7.5 -17.5v-252z" />
    <glyph glyph-name="uni2077" unicode="&#x2077;" horiz-adv-x="350" 
d="M250 1400q-125 -400 -125 -700h-100q0 262 95 600h-120v100h250z" />
    <glyph glyph-name="uni2078" unicode="&#x2078;" horiz-adv-x="350" 
d="M100 824q0 -10 7.5 -17t17.5 -7t17.5 7t7.5 17v252q0 10 -7.5 17.5t-17.5 7.5t-17.5 -7.5t-7.5 -17.5v-252zM150 1275q0 10 -7 17.5t-18 7.5q-10 0 -17.5 -7.5t-7.5 -17.5t7.5 -17.5t17.5 -7.5q11 0 18 7.5t7 17.5zM201 1175q6 -5 13 -11q36 -37 36 -89v-250
q0 -51 -36.5 -88t-88.5 -37t-88.5 37t-36.5 88v250q0 52 37 89q6 6 13 11q-7 6 -13 12q-37 36 -37 88t37 88.5t88 36.5q52 0 88.5 -36.5t36.5 -88.5t-36 -88q-7 -7 -13 -12z" />
    <glyph glyph-name="uni2079" unicode="&#x2079;" horiz-adv-x="350" 
d="M150 902q-12 -2 -25 -2q-52 0 -88.5 36.5t-36.5 88.5v250q0 51 36.5 88t88.5 37t88.5 -37t36.5 -88v-450q0 -52 -36.5 -88.5t-88.5 -36.5t-88.5 36.5t-36.5 88.5h100q0 -11 7 -18t18 -7q10 0 17.5 7t7.5 18v77zM150 1276q0 10 -7.5 17t-17.5 7t-17.5 -7t-7.5 -17v-252
q0 -10 7.5 -17.5t17.5 -7.5t17.5 7.5t7.5 17.5v252z" />
    <glyph glyph-name="uni2070" unicode="&#x2070;" horiz-adv-x="400" 
d="M150 1001q-20 0 -34.5 14t-14.5 35t14.5 35t34.5 14q21 0 35 -14t14 -35t-14 -35t-35 -14zM100 851q0 -21 14.5 -35.5t35.5 -14.5t35.5 14.5t14.5 35.5v398q0 21 -14.5 36t-35.5 15t-35.5 -15t-14.5 -36v-398zM150 700q-62 0 -106 44t-44 106v400q0 62 44 106t106 44
t106 -44t44 -106v-400q0 -62 -44 -106t-106 -44z" />
    <glyph glyph-name="Ydieresis" unicode="&#x178;" 
d="M200 300l-200 1100h100l150 -825l150 825h100l-200 -1100v-300h-100v300zM50 1550q-21 0 -35.5 15t-14.5 35q0 21 14.5 35.5t35.5 14.5t35.5 -14.5t14.5 -35.5q0 -20 -14.5 -35t-35.5 -15zM450 1550q-21 0 -35.5 15t-14.5 35q0 21 14.5 35.5t35.5 14.5t35.5 -14.5
t14.5 -35.5q0 -20 -14.5 -35t-35.5 -15z" />
    </font>
</defs>
</svg>
